/* XPM */
static char * max_xpm[] = {
"20 20 4 1",
"   c None",
".  c #e0ff38",
"+  c #1e1e1b",
"@  c #FFFFFF",
"....................",
"++++++++++++++++++++",
"++++++++++++++++++++",
"++++++++++++++++++++",
"++++++++++++++++++++",
"++++++++++++++++++++",
"++++++++++++++++++++",
"++++++++++++++++++++",
"++++++++++++++++++++",
"+++++++++@++++++++++",
"++++++++@+@+++++++++",
"+++++++@+++@++++++++",
"++++++@+++++@+++++++",
"+++++@+++++++@++++++",
"++++++++++++++++++++",
"++++++++++++++++++++",
"++++++++++++++++++++",
"++++++++++++++++++++",
"++++++++++++++++++++",
"++++++++++++++++++++",
"++++++++++++++++++++",
"++++++++++++++++++++"};
