/* XPM */
static char * min_xpm[] = {
"20 20 4 1",
" 	c None",
".	c #e0ff38",
"+	c #1E1E1E",
"@	c #FFFFFF",
"....................",
"++++++++++++++++++++",
"++++++++++++++++++++",
"++++++++++++++++++++",
"++++++++++++++++++++",
"++++++++++++++++++++",
"++++++++++++++++++++",
"++++++++++++++++++++",
"++++++++++++++++++++",
"+++++@@+++++@@++++++",
"++++++@@+++@@+++++++",
"+++++++@@+@@++++++++",
"++++++++@@@+++++++++",
"+++++++++@++++++++++",
"++++++++++++++++++++",
"++++++++++++++++++++",
"++++++++++++++++++++",
"++++++++++++++++++++",
"++++++++++++++++++++",
"++++++++++++++++++++",
"++++++++++++++++++++",
"++++++++++++++++++++"};
