/* XPM */
static char * toolbar_focused_xpm[] = {
"10 18 3 1",
" 	c None",
".	c #e0ff38",
"+	c #1E1E1E",
"..........",
"++++++++++",
"++++++++++",
"++++++++++",
"++++++++++",
"++++++++++",
"++++++++++",
"++++++++++",
"++++++++++",
"++++++++++",
"++++++++++",
"++++++++++",
"++++++++++",
"++++++++++",
"++++++++++",
"++++++++++",
"++++++++++",
"++++++++++"};
